<?xml version="1.0" encoding="UTF-8" standalone="no"?>
<!-- Created with Inkscape (http://www.inkscape.org/) -->

<svg
   version="1.1"
   id="svg1"
   width="199"
   height="73.655838"
   viewBox="0 0 199 73.655838"
   xmlns="http://www.w3.org/2000/svg"
   xmlns:svg="http://www.w3.org/2000/svg">
  <defs
     id="defs1" />
  <g
     id="g1"
     transform="translate(-12.399452,-26.905514)"
     style="display:inline">
    <path
       style="opacity:0.99;fill:#8f757c;fill-opacity:1;stroke-width:0.923411"
       d="m 205.36001,99.843594 c 0.84377,0.0042 2.40144,0.227556 2.49918,-0.625631 0.84645,-7.388949 -11.24177,-6.827003 -18.00758,-7.357327 -13.81359,-1.082748 -29.00768,-1.341294 -42.9681,-1.569321 -14.19161,-0.231803 -27.99993,-0.840907 -43.21964,-1.750099 -1.55376,-0.09282 -6.028556,-2.0793 -6.576493,-3.450953 C 96.176825,82.810876 96.398149,83.746176 95.736129,81.149217 92.830518,69.751166 84.342963,57.867836 76.360835,54.022085 70.936961,51.408892 60.086462,51.180996 54.433756,53.561544 c -1.978701,0.833296 -3.704274,1.515085 -3.834601,1.515085 -0.130326,0 0.917315,-1.832635 1.172948,-4.072522 0.0094,-3.527811 -1.058743,-6.060341 -2.388097,-8.790099 -0.759991,-1.560598 -2.051872,-2.800866 -3.114405,-4.173483 -1.152056,-1.488265 -3.534453,-3.940044 -3.534453,-4.403082 0,-0.463037 -0.927141,-5.284611 -3.005559,-6.481227 -0.443665,-0.255433 -0.851098,-0.455169 -1.534915,0.130421 -0.800426,0.68545 -1.62948,3.320972 -1.62948,3.320972 -1.096536,3.969273 -1.572428,3.747769 -3.464298,4.261067 -2.197265,0.596158 -4.394886,0.769419 -6.797615,0.71404 -1.698246,-0.03914 -2.168665,0.138819 -3.408694,-2.669882 -1.397583,-3.16557 -2.582782,-6.30779 -4.19766,-5.21127 -2.835085,1.925055 -1.552467,6.496559 -3.332567,9.648677 -1.841934,3.261612 -2.82914,6.144962 -2.943576,9.433488 -0.127329,3.659024 0.265811,7.65527 2.537831,10.693669 l 3.433957,4.592265 -1.840895,6.36925 c -3.828999,13.247751 -0.980158,28.757094 10.567485,30.388328 0,0 4.691316,0.835079 7.064332,0.997916 26.172221,1.795943 78.705466,-0.258898 78.705466,-0.258898 43.97884,0.0063 84.80276,0.23921 86.54881,0.247891 z"
       id="path1" />
    <text
       xml:space="preserve"
       style="font-size:67.0355px;line-height:0.4;opacity:0.99;fill:#8f757c;fill-opacity:1;stroke-width:1.49321"
       x="106.10982"
       y="85.064232"
       id="text1"
       transform="scale(0.9842322,1.0160204)"><tspan
         id="tspan1"
         x="106.10982"
         y="85.064232"
         style="font-style:italic;font-variant:normal;font-weight:900;font-stretch:normal;font-size:67.0355px;font-family:Raleway;-inkscape-font-specification:'Raleway, Heavy Italic';font-variant-ligatures:normal;font-variant-caps:normal;font-variant-numeric:normal;font-variant-east-asian:normal;fill:#8f757c;fill-opacity:1;stroke-width:1.49321">KV</tspan></text>
  </g>
</svg>
